<svg xmlns="http://www.w3.org/2000/svg" xmlns:xlink="http://www.w3.org/1999/xlink" version="1.1" id="Layer_1" x="0px" y="0px" width="1792px" height="1792px" viewBox="0 0 1792 1792" enable-background="new 0 0 1792 1792" xml:space="preserve">
  <path fill="#FFFFFF" d="M1376 128c79.333 0 147.167 28.167 203.5 84.5S1664 336.667 1664 416v960c0 79.333-28.167 147.167-84.5 203.5S1455.333 1664 1376 1664H416c-79.333 0-147.167-28.167-203.5-84.5S128 1455.333 128 1376V416c0-79.333 28.167-147.167 84.5-203.5S336.667 128 416 128H1376zM826 896c0-58.667-20.667-108.667-62-150s-91.333-62-150-62 -108.667 20.667-150 62 -62 91.333-62 150 20.667 108.667 62 150 91.333 62 150 62 108.667-20.667 150-62S826 954.667 826 896zM1390 896c0-58.667-20.667-108.667-62-150s-91.333-62-150-62 -108.667 20.667-150 62 -62 91.333-62 150 20.667 108.667 62 150 91.333 62 150 62 108.667-20.667 150-62S1390 954.667 1390 896z"/>
</svg>
